<?xml version="1.0" encoding="iso-8859-1"?>
<!-- Generator: Adobe Illustrator 18.1.1, SVG Export Plug-In . SVG Version: 6.00 Build 0)  -->
<svg version="1.1" id="Capa_1" xmlns="http://www.w3.org/2000/svg" xmlns:xlink="http://www.w3.org/1999/xlink" x="0px" y="0px"
	 viewBox="0 0 611.999 611.999" fill="#E1E1E1" xml:space="preserve">
<g>
	<g>
		<path d="M90.874,381.094c2.153,35.421,16.752,70.226,43.817,97.292c58.81,58.81,154.16,58.81,212.969,0s58.81-154.159,0-212.969
			s-154.16-58.81-212.969,0c-18.101,18.101-30.622,39.667-37.581,62.561c9.134-2.024,19.075,0.51,26.18,7.615
			c11.062,11.062,11.062,28.997,0,40.058C114.521,384.421,101.434,386.229,90.874,381.094z M256.443,385.553
			c11.988-11.989,31.426-11.989,43.414,0c11.988,11.988,11.988,31.425,0,43.414c-11.988,11.989-31.426,11.989-43.414,0
			C244.455,416.978,244.455,397.541,256.443,385.553z M199.658,268.958c10.215-10.215,26.776-10.215,36.99,0
			c10.215,10.215,10.215,26.776,0,36.99c-10.215,10.215-26.776,10.215-36.99,0C189.443,295.734,189.443,279.173,199.658,268.958z
			 M156.172,400.689c9.121-9.12,23.909-9.12,33.029,0c9.121,9.12,9.121,23.908,0,33.029c-9.12,9.12-23.908,9.12-33.029,0
			C147.051,424.597,147.051,409.809,156.172,400.689z"/>
		<path d="M393.694,538.44c6.703-7.68,12.955-15.839,18.888-24.389c11.219-16.166,22.576-32.438,32.866-49.214l6.324-9.925
			c4.234-6.609,8.352-13.269,12.491-19.916c4.11-6.666,75.042-128.109,82.557-141.796c3.767-6.837,7.521-13.681,11.24-20.544
			l11.041-20.655c7.305-13.802,14.623-27.589,21.684-41.528c7.072-13.933,14.146-27.858,20.959-41.937
			c-9.634,12.333-19.007,24.82-28.382,37.3l-27.958,37.52l-27.734,37.613l-27.634,37.621c0,0-101.742,136.81-111.193,148.898
			c0,0-6.77,8.646-7.077,9.039c-57.78,73.8-159.441,103.888-242.548,51.564c-11.115-6.968-21.425-15.21-30.766-24.494
			C75.762,470.723,57.08,425.172,56.911,378.82c-0.207-56.914,26.501-105.866,69.71-141.44l8.893-7.173l9.023-7.111
			c12.04-9.495,24.298-18.858,36.598-28.201c6.118-4.707,12.336-9.313,18.525-13.956c6.187-4.649,168.718-124.625,168.718-124.625
			l37.518-27.951C418.385,18.992,430.875,9.622,443.206,0c-14.075,6.825-27.991,13.903-41.91,20.979
			c-13.922,7.058-27.706,14.389-41.505,21.705l-20.653,11.058c-6.858,3.728-13.7,7.483-20.532,11.258
			c-13.678,7.525-27.33,15.103-40.874,22.874c-13.578,7.714-27.126,15.488-40.566,23.46c-6.728,3.974-73.531,44.693-80.132,48.943
			c-6.609,4.238-13.237,8.412-19.79,12.778c-6.562,4.345-13.167,8.599-19.681,13.089l-9.796,6.682c0,0-9.768,6.826-9.771,6.829
			c-21.687,15.156-40.631,32.162-56.071,53.778c-10.191,14.286-18.681,29.847-25.289,46.196C10.096,316,5.339,333.141,2.779,350.642
			c-1.295,8.746-2.147,17.569-2.419,26.421c-0.263,8.851-0.033,17.722,0.692,26.561c1.485,17.675,5.046,35.204,10.604,52.109
			c2.759,8.459,6.024,16.761,9.805,24.828c3.765,8.073,7.99,15.936,12.65,23.534c9.141,14.825,20.032,28.547,32.193,40.936
			c0,0,0.872,0.869,0.879,0.862c12.37,12.187,26.113,23.055,40.921,32.226c15.205,9.305,31.445,16.947,48.37,22.471
			c16.914,5.545,34.443,9.135,52.126,10.614c8.842,0.724,17.716,0.952,26.571,0.688c8.856-0.246,17.682-1.121,26.431-2.412
			c17.507-2.567,34.66-7.305,51.034-13.864c16.367-6.589,31.917-15.119,46.22-25.296
			C371.874,561.059,383.323,550.323,393.694,538.44z"/>
		<path d="M245.372,177.305c47.553-0.349,86.681,19.526,86.681,19.526L500.215,2.117L245.372,177.305z"/>
		<path d="M610.96,112.861L416.246,281.023c0,0,19.875,39.128,19.526,86.681L610.96,112.861z"/>
	</g>
</g>
<g>
</g>
<g>
</g>
<g>
</g>
<g>
</g>
<g>
</g>
<g>
</g>
<g>
</g>
<g>
</g>
<g>
</g>
<g>
</g>
<g>
</g>
<g>
</g>
<g>
</g>
<g>
</g>
<g>
</g>
</svg>
