<?xml version="1.0" encoding="UTF-8" standalone="no"?>
<!-- Created with clker.com Auto tracing tool http://www.clker.com) -->

<svg
   xmlns:dc="http://purl.org/dc/elements/1.1/"
   xmlns:cc="http://creativecommons.org/ns#"
   xmlns:rdf="http://www.w3.org/1999/02/22-rdf-syntax-ns#"
   xmlns:svg="http://www.w3.org/2000/svg"
   xmlns="http://www.w3.org/2000/svg"
   xmlns:sodipodi="http://sodipodi.sourceforge.net/DTD/sodipodi-0.dtd"
   xmlns:inkscape="http://www.inkscape.org/namespaces/inkscape"
   width="739"
   height="561"
   id="svg3075"
   version="1.1"
   inkscape:version="0.48.5 r10040"
   sodipodi:docname="sunset.svg">
  <metadata
     id="metadata3109">
    <rdf:RDF>
      <cc:Work
         rdf:about="">
        <dc:format>image/svg+xml</dc:format>
        <dc:type
           rdf:resource="http://purl.org/dc/dcmitype/StillImage" />
      </cc:Work>
    </rdf:RDF>
  </metadata>
  <defs
     id="defs3107" />
  <sodipodi:namedview
     pagecolor="#ffffff"
     bordercolor="#666666"
     borderopacity="1"
     objecttolerance="10"
     gridtolerance="10"
     guidetolerance="10"
     inkscape:pageopacity="0"
     inkscape:pageshadow="2"
     inkscape:window-width="1137"
     inkscape:window-height="729"
     id="namedview3105"
     showgrid="false"
     inkscape:zoom="1.2586667"
     inkscape:cx="567.91574"
     inkscape:cy="402.63151"
     inkscape:window-x="276"
     inkscape:window-y="222"
     inkscape:window-maximized="0"
     inkscape:current-layer="svg3075"
     inkscape:snap-grids="false" />
  <path
     style="fill:#e1e1e1;fill-rule:evenodd;stroke:#c8c8c8;stroke-width:0.50000000000000000px;stroke-linecap:butt;stroke-linejoin:miter;stroke-opacity:1;fill-opacity:1"
     d="m 371.38072,189.40922 q 23,0 43,5 20,5 36,13 16,8 32,20.3 16,12.2 20.5,17.4 4.5,5.3 15.3,20.6 10.7,15.2 17.2,30.2 6.5,15 10.5,31 4,16 4.5,38 0.5,22 -2,36 -2.5,14 -8,29.5 -5.5,15.5 -15,31.5 -9.5,16 -20,27.5 -10.5,11.5 -24.8,22.7 -14.2,11.3 -32.2,19.8 -18,8.5 -34,12.5 -16,4 -34,5 -18,1 -35.5,-1.5 -17.5,-2.5 -32,-7.5 -14.5,-5 -30,-13.5 -15.5,-8.5 -28.5,-19.5 -13,-11 -24.2,-24.7 -11.3,-13.8 -20.8,-32.8 -9.5,-19 -14,-38 -4.5,-19 -5,-37.5 -0.5,-18.5 2.5,-36 3,-17.5 8.5,-32 5.5,-14.5 14.5,-30 9,-15.5 19.5,-27 10.5,-11.5 21,-20 10.5,-8.5 22.8,-15.7 12.2,-7.3 24.7,-12.3 12.5,-5 28.5,-8.5 16,-3.5 39,-3.5 z"
     id="path3079"
     inkscape:connector-curvature="0" />
  <path
     style="fill:#e1e1e1;fill-rule:evenodd;stroke:#c8c8c8;stroke-width:0.50000000000000000px;stroke-linecap:butt;stroke-linejoin:miter;stroke-opacity:1;fill-opacity:1"
     d="m 369.38072,1.9092237 0.5,-2.00000002 17.5,74.00000032 q 17.5,73.999996 18,75.999996 l 0.5,2 0.3,2 0.2,2 -1,-0.2 -1,-0.3 -4,-0.5 q -4,-0.5 -26,-1 -22,-0.5 -30,0.5 l -8,1 -2,0.3 -2,0.2 0.2,-2.5 0.3,-2.5 18,-73.499996 q 18,-73.5000003 18.5,-75.5000003 z"
     id="path3081"
     inkscape:connector-curvature="0" />
  <path
     style="fill:#e1e1e1;fill-rule:evenodd;stroke:#c8c8c8;stroke-width:0.50000000000000000px;stroke-linecap:butt;stroke-linejoin:miter;stroke-opacity:1;fill-opacity:1"
     d="m 8.3807184,370.90922 -1.9999999,-0.5 -2,-0.5 -2,-0.5 -0.2,-0.3 -0.3,-0.2 -0.3,-0.2 -0.2,-0.3 2,-0.5 2,-0.5 2,-0.5 1.9999999,-0.5 73.9999996,-17.7 q 74.000002,-17.8 72.800002,-8.8 -1.3,9 -0.8,33 0.5,24 0.8,28 0.2,4 -72.800002,-12.8 -73,-16.7 -74.9999996,-17.2 z"
     id="path3083"
     inkscape:connector-curvature="0" />
  <path
     style="fill:#e1e1e1;fill-rule:evenodd;stroke:#c8c8c8;stroke-width:0.50000000000000000px;stroke-linecap:butt;stroke-linejoin:miter;stroke-opacity:1;fill-opacity:1"
     d="m 729.38072,365.90922 2,0.5 2,0.5 2,0.5 2,0.5 2,0.5 -0.2,0.3 -0.3,0.2 -0.3,0.2 -0.2,0.3 -2,0.5 -2,0.5 -2,0.5 q -2,0.5 -73,17 l -71,16.5 -2,0.3 -2,0.2 0.2,-2 0.3,-2 1,-21 q 1,-21 -0.3,-35 -1.2,-14 70.3,3.2 71.5,17.3 73.5,17.8 z"
     id="path3087"
     inkscape:connector-curvature="0" />
  <path
     style="fill:#e1e1e1;fill-rule:evenodd;stroke:#c8c8c8;stroke-width:0.50000000000000000px;stroke-linecap:butt;stroke-linejoin:miter;stroke-opacity:1;fill-opacity:1"
     d="m 554.38072,48.909224 1,0 -0.2,1 q -0.3,1 -22.8,73.999996 l -22.5,73 -0.3,2.5 -0.2,2.5 -1,-0.2 -1,-0.3 -0.2,-0.3 -0.3,-0.2 -0.3,-0.2 -0.2,-0.3 -0.2,-0.3 -0.3,-0.2 -0.3,-0.2 -0.2,-0.3 -1,-0.5 q -1,-0.5 -11.5,-8 -10.5,-7.5 -28.5,-16 l -18,-8.5 -1,-0.3 -1,-0.2 0.2,-1 0.3,-1 0.3,-0.2 0.2,-0.3 0.2,-0.3 0.3,-0.2 0.3,-0.2 0.2,-0.3 0.2,-0.3 0.3,-0.2 0.3,-0.2 0.2,-0.3 33.2,-34.7 q 33.3,-34.799996 33.6,-35.799996 0.2,-1 1.2,-1 1,0 9.5,-10 8.5,-10 9.5,-10 1,0 7.5,-7.2 6.5,-7.3 6.7,-7.6 l 0.3,-0.2 0.3,-0.2 0.2,-0.3 2,-2.7 q 2,-2.8 3,-2.8 z"
     id="path3089"
     inkscape:connector-curvature="0" />
  <path
     style="fill:#e1e1e1;fill-rule:evenodd;stroke:#c8c8c8;stroke-width:0.50000000000000000px;stroke-linecap:butt;stroke-linejoin:miter;stroke-opacity:1;fill-opacity:1"
     d="m 190.18072,487.70922 10.2,15.7 0.2,0.3 0.3,0.2 0.3,0.2 0.2,0.3 0.2,0.3 0.3,0.2 0.5,1 0.5,1 0.3,0.2 0.2,0.3 -2,0.5 -2,0.5 -68.5,21 q -68.500002,21 -70.500002,21.5 l -2,0.5 -1.5,0.5 -1.5,0.5 -1.5,0.5 -1.5,0.5 -1,0 -1,0 0.2,-0.3 0.3,-0.2 0.3,-0.2 0.2,-0.3 0.2,-0.3 0.3,-0.2 0.3,-0.2 0.2,-0.3 0.2,-0.3 0.3,-0.2 0.3,-0.2 0.2,-0.3 0.2,-0.3 0.3,-0.2 0.3,-0.2 0.2,-0.3 0.2,-0.3 0.3,-0.2 0.3,-0.2 0.2,-0.3 0.2,-0.3 0.3,-0.2 0.3,-0.2 0.2,-0.3 0.2,-0.3 0.3,-0.2 0.3,-0.2 q 0.2,-0.3 13.2,-12.8 13,-12.5 16.5,-16.2 3.5,-3.8 15.500002,-14.6 12,-10.7 38.5,-35.4 26.5,-24.8 26.7,-23.3 0.3,1.5 6.3,14.5 6,13 16.3,28.8 z"
     id="path3091"
     inkscape:connector-curvature="0" />
  <path
     style="fill:#e1e1e1;fill-rule:evenodd;stroke-width:0.50000000000000000px;stroke-linecap:butt;stroke-linejoin:miter;stroke-opacity:1;fill-opacity:1"
     d="m 189.88072,60.909224 -3,-12 22.7,24.2 q 22.8,24.3 23.8,24.6 1,0.2 18.8,19.199996 17.7,19 29.2,31.5 11.5,12.5 11.8,12.7 l 0.2,0.3 0.2,0.3 0.3,0.2 0.3,0.2 0.2,0.3 0.2,0.3 0.3,0.2 0.3,0.2 0.2,0.3 0.2,0.3 0.3,0.2 0,1 0,1 -0.3,0.2 -0.2,0.3 -1.5,0.5 -1.5,0.5 -1.5,0.5 q -1.5,0.5 -13,6 -11.5,5.5 -26.5,15.5 l -15,10 -1,0.5 -1,0.5 -0.2,0.3 -0.3,0.2 -0.3,0.2 -0.2,0.3 -0.2,0.3 -0.3,0.2 -0.3,-0.2 -0.2,-0.3 -0.2,-0.3 -0.3,-0.2 -0.5,-2 -0.5,-2 -0.5,-1.5 q -0.5,-1.5 -19,-62 -18.5,-60.499996 -21.5,-72.499996 z"
     id="path3093"
     inkscape:connector-curvature="0" />
  <path
     style="fill:#e1e1e1;fill-rule:evenodd;stroke:#c8c8c8;stroke-width:0.50000000000000000px;stroke-linecap:butt;stroke-linejoin:miter;stroke-opacity:1;fill-opacity:1"
     d="m 684.18072,547.10922 0.2,0.3 0.2,0.3 0.3,0.2 0.3,0.2 0.2,0.3 1,0.5 1,0.5 0.2,0.3 0.3,0.2 0.3,0.2 0.2,0.3 0.2,0.3 0.3,0.2 0.3,0.2 0.2,0.3 0.2,0.3 0.3,0.2 0,1 0,1 -0.3,-0.2 -0.2,-0.3 -1.5,-0.5 -1.5,-0.5 -2,-0.5 -2,-0.5 -1.5,-0.5 q -1.5,-0.5 -70.5,-21.5 l -69,-21 -1.5,-0.3 -1.5,-0.2 0.2,-1 0.3,-1 0.3,-0.2 0.2,-0.3 0.2,-0.3 0.3,-0.2 0.5,-1 0.5,-1 8.5,-12.5 q 8.5,-12.5 16,-28 7.5,-15.5 8.8,-17.3 1.2,-1.7 14.7,10.6 13.5,12.2 13.5,13.2 0,1 19,18.8 19,17.7 40.8,38.4 21.7,20.8 22,21 z"
     id="path3095"
     inkscape:connector-curvature="0" />
  <path
     style="fill:#e1e1e1;fill-rule:evenodd;stroke:#c8c8c8;stroke-width:0.50000000000000000px;stroke-linecap:butt;stroke-linejoin:miter;stroke-opacity:1;fill-opacity:1"
     d="m 689.38072,184.10922 1,-0.2 0,1 q 0,1 -36,33.5 -36,32.5 -36,33.5 0,1 -20.5,19.8 l -20.5,18.7 -1,0.3 -1,0.2 -0.2,1 -0.3,1 -0.3,0.2 -0.2,0.3 -0.2,0.3 -0.3,0.2 -0.3,-0.2 -0.2,-0.3 -0.2,-0.3 -0.3,-0.2 -0.5,-1.5 -0.5,-1.5 -0.5,-1.5 q -0.5,-1.5 -7,-14.5 -6.5,-13 -15.8,-26.8 l -9.2,-13.7 -0.2,-0.3 -0.3,-0.2 -0.3,-0.2 -0.2,-0.3 -0.2,-0.3 -0.3,-0.2 -0.3,-0.2 -0.2,-0.3 -0.2,-0.3 -0.3,-0.2 -0.3,-1 -0.2,-1 1,-0.2 1,-0.3 1.5,-0.5 1.5,-0.5 73.5,-21.5 q 73.5,-21.5 74.5,-21.8 z"
     id="path3099"
     inkscape:connector-curvature="0" />
  <path
     style="fill:#e1e1e1;fill-rule:evenodd;stroke:#c8c8c8;stroke-width:0.50000000000000000px;stroke-linecap:butt;stroke-linejoin:miter;stroke-opacity:1;fill-opacity:1"
     d="m 53.380718,187.40922 -3,-3 2.5,0.5 q 2.5,0.5 4.5,1 l 2,0.5 68.500002,20 q 68.5,20 70,20.5 l 1.5,0.5 1.5,0.5 1.5,0.5 1,0.3 1,0.2 -0.2,1 -0.3,1 -0.3,0.2 -0.2,0.3 -0.2,0.3 -0.3,0.2 -0.3,0.2 -0.2,0.3 -0.2,0.3 -0.3,0.2 -10.5,16 q -10.5,16 -16,27.5 -5.5,11.5 -6,12.5 l -0.5,1 -0.3,1.5 -0.2,1.5 -1,-0.2 -1,-0.3 -0.2,-0.3 -0.3,-0.2 -0.3,-0.2 -0.2,-0.3 -0.2,-0.3 -0.3,-0.2 -0.3,-0.2 -0.2,-0.3 -0.2,-0.3 -0.3,-0.2 -0.3,-0.2 q -0.2,-0.3 -15.2,-13.6 -15,-13.2 -15,-14.2 0,-1 -21.5,-20 -21.500002,-19 -21.500002,-20 0,-1 -16.8,-16 l -16.7,-15 -0.3,-0.2 q -0.2,-0.3 -3.2,-3.3 z"
     id="path3101"
     inkscape:connector-curvature="0" />
  <rect
     style="fill:#e1e1e1;fill-rule:evenodd;stroke:#c8c8c8;stroke-width:1.33529329000000008px;stroke-linecap:butt;stroke-linejoin:miter;stroke-opacity:1;fill-opacity:1"
     id="rect3111"
     width="737.34222"
     height="57.147694"
     x="1.4187443"
     y="502.53998" />
</svg>
